<svg xmlns="http://www.w3.org/2000/svg" width="500" height="500" viewBox="0 0 500 500" fill="none">
  <!-- Koło tła - dokładnie jak w oryginale -->
  <circle cx="250" cy="250" r="240" fill="#FFFFFF" stroke="#27A7D7" stroke-width="12"/>

  <!-- Wnętrze koła - jasny błękit background -->
  <circle cx="250" cy="250" r="228" fill="#56C1E8" opacity="0.2"/>

  <!-- Postać dziecka/huśtawka - żółty/pomarańczowy -->
  <g transform="translate(250, 250)">
    <!-- Głowa dziecka -->
    <circle cx="0" cy="-60" r="35" fill="#F9D14C"/>

    <!-- Ciało/kształt huśtawki - pomarańczowy -->
    <ellipse cx="0" cy="0" rx="65" ry="45" fill="#F0A523"/>

    <!-- Ręce dziecka trzymające liny -->
    <line x1="-40" y1="-35" x2="-65" y2="-100" stroke="#F9D14C" stroke-width="8" stroke-linecap="round"/>
    <line x1="40" y1="-35" x2="65" y2="-100" stroke="#F9D14C" stroke-width="8" stroke-linecap="round"/>

    <!-- Nogi dziecka -->
    <rect x="-15" y="30" width="12" height="50" rx="6" fill="#F9D14C"/>
    <rect x="3" y="30" width="12" height="50" rx="6" fill="#F9D14C"/>

    <!-- Twarz - uśmiech i oczy -->
    <path d="M -15,-55 Q 0,-48 15,-55" stroke="#F0A523" stroke-width="3" stroke-linecap="round" fill="none"/>
    <circle cx="-10" cy="-65" r="3" fill="#F0A523"/>
    <circle cx="10" cy="-65" r="3" fill="#F0A523"/>
  </g>

  <!-- Liny huśtawki - błękit -->
  <line x1="185" y1="150" x2="185" y2="50" stroke="#56C1E8" stroke-width="8" stroke-linecap="round"/>
  <line x1="315" y1="150" x2="315" y2="50" stroke="#56C1E8" stroke-width="8" stroke-linecap="round"/>

  <!-- Górna belka huśtawki -->
  <rect x="165" y="45" width="170" height="12" rx="6" fill="#27A7D7"/>

  <!-- Ozdobne elementy - gwiazdki/koła w tle -->
  <g transform="translate(250, 250)">
    <circle cx="-160" cy="-120" r="6" fill="#F9D14C" opacity="0.7"/>
    <circle cx="160" cy="-120" r="6" fill="#F9D14C" opacity="0.7"/>
    <circle cx="-180" cy="100" r="4" fill="#56C1E8" opacity="0.6"/>
    <circle cx="180" cy="100" r="4" fill="#56C1E8" opacity="0.6"/>
    <circle cx="-140" cy="-80" r="3" fill="#F9D14C" opacity="0.5"/>
    <circle cx="140" cy="-80" r="3" fill="#F9D14C" opacity="0.5"/>
  </g>
</svg>